<svg width="168" height="56" viewBox="0 0 168 56" fill="none" xmlns="http://www.w3.org/2000/svg">
<g clip-path="url(#clip0_18401_533283)">
<path d="M59.5044 55.6835C56.2891 55.6835 53.3954 54.8947 50.8229 53.3173C48.2507 51.7395 46.2227 49.5645 44.7387 46.7916C43.2547 43.9713 42.5127 40.6966 42.5127 36.9676C42.5127 32.9997 43.4281 29.5099 45.2582 26.4981C47.0884 23.4386 49.6111 21.0483 52.8264 19.3273C56.0911 17.6063 59.8754 16.7458 64.1789 16.7458C68.3831 16.7458 72.0438 17.5824 75.1599 19.2556C78.2765 20.881 80.7 23.1757 82.4314 26.1396C84.2121 29.0558 85.1026 32.45 85.1026 36.3222V53.9006C85.1026 54.7676 84.3754 55.4704 83.4783 55.4704H73.2229C72.3257 55.4704 71.5985 54.7676 71.5985 53.9006V49.4939C71.5985 49.348 71.476 49.2296 71.3251 49.2296C71.2201 49.2296 71.1248 49.2879 71.0777 49.3788C70.4431 50.609 69.6027 51.7068 68.5566 52.6716C67.5175 53.6277 66.2563 54.3689 64.7723 54.8947C63.2883 55.4205 61.5325 55.6835 59.5044 55.6835ZM63.8818 43.6364C65.2176 43.6364 66.38 43.3256 67.3693 42.7043C68.408 42.0827 69.1994 41.2224 69.7435 40.1227C70.3373 38.9752 70.634 37.6846 70.634 36.2505C70.634 34.8641 70.3373 33.6451 69.7435 32.5934C69.1994 31.5416 68.408 30.7051 67.3693 30.0836C66.38 29.4621 65.2176 29.1514 63.8818 29.1514C62.5957 29.1514 61.4333 29.4621 60.3946 30.0836C59.3559 30.7051 58.5396 31.5416 57.9461 32.5934C57.4021 33.6451 57.1299 34.8641 57.1299 36.2505C57.1299 37.6846 57.4021 38.9752 57.9461 40.1227C58.5396 41.2224 59.3559 42.0827 60.3946 42.7043C61.4333 43.3256 62.5957 43.6364 63.8818 43.6364Z" fill="#FCFCFB"/>
<path d="M90.8718 55.4704C89.9746 55.4704 89.2474 54.7676 89.2474 53.9006V20.0124C89.2474 19.1453 89.9746 18.4425 90.8718 18.4425H101.893C102.79 18.4425 103.517 19.1453 103.517 20.0124V53.9006C103.517 54.7676 102.79 55.4704 101.893 55.4704H90.8718ZM96.3824 14.6539C94.3014 14.6539 92.5176 13.9391 91.0313 12.5094C89.5449 11.0321 88.8018 9.31656 88.8018 7.36268C88.8018 5.36119 89.5449 3.6456 91.0313 2.21595C92.5176 0.738651 94.3014 0 96.3824 0C98.4633 0 100.247 0.738651 101.733 2.21595C103.22 3.6456 103.963 5.36119 103.963 7.36268C103.963 9.31656 103.22 11.0321 101.733 12.5094C100.247 13.9391 98.4633 14.6539 96.3824 14.6539Z" fill="#FCFCFB"/>
<path d="M128.121 55.3727C124.906 55.3727 121.987 54.8947 119.366 53.9385C116.793 52.9824 114.568 51.62 112.688 49.8509C110.808 48.0345 109.349 45.9072 108.31 43.4692C107.321 41.0311 106.826 38.3299 106.826 35.366C106.826 31.5415 107.642 28.219 109.275 25.3985C110.907 22.578 113.084 20.3789 115.804 18.8013C118.574 17.2237 121.461 16.7384 124.874 16.7384C126.259 16.7384 127.547 17.1211 128.684 17.4079C129.872 17.647 130.619 18.2277 131.608 18.8013C133.459 20.0361 134.674 22.0723 135.425 22.9928C135.48 23.0611 135.565 23.099 135.656 23.099C135.823 23.099 135.959 22.9678 135.959 22.806V1.56998C135.959 0.702935 136.686 6.10352e-05 137.583 6.10352e-05H147.792C148.689 6.10352e-05 149.416 0.702935 149.416 1.56998V35.2225C149.416 39.2861 148.526 42.8235 146.745 45.8355C144.964 48.847 142.466 51.1897 139.251 52.8629C136.085 54.5361 132.375 55.3727 128.121 55.3727ZM128.121 43.3256C129.457 43.3256 130.619 43.0148 131.608 42.3935C132.647 41.7719 133.439 40.9116 133.983 39.8119C134.577 38.6644 134.873 37.3738 134.873 35.9397C134.873 34.5533 134.577 33.3342 133.983 32.2825C133.439 31.2308 132.647 30.3942 131.608 29.7727C130.619 29.1512 129.457 28.8405 128.121 28.8405C126.835 28.8405 125.673 29.1512 124.634 29.7727C123.595 30.3942 122.779 31.2308 122.185 32.2825C121.641 33.3342 121.369 34.5533 121.369 35.9397C121.369 37.3738 121.641 38.6644 122.185 39.8119C122.779 40.9116 123.595 41.7719 124.634 42.3935C125.673 43.0148 126.835 43.3256 128.121 43.3256Z" fill="#FCFCFB"/>
<path d="M21.2949 0.167389C24.5102 0.167389 27.4286 0.645438 30.0503 1.60155C32.6225 2.55767 34.8485 3.92012 36.7282 5.68893C38.6078 7.50555 40.0672 9.63288 41.106 12.071C42.0953 14.509 42.59 17.2101 42.59 20.174C42.59 23.9985 41.7737 27.3209 40.1411 30.1415C38.5089 32.962 36.3324 35.1611 33.6118 36.7386C30.8417 38.3164 28.0762 38.8012 24.6631 38.8012C23.2083 38.6656 21.9439 38.4979 20.8528 38.1319C19.6923 37.7425 18.8634 37.494 17.8076 36.7387C15.6752 35.2132 14.7209 33.447 13.9914 32.5474C13.9359 32.479 13.8505 32.441 13.7605 32.441C13.5931 32.441 13.4574 32.5722 13.4574 32.734V53.9701C13.4574 54.8372 12.7301 55.54 11.8329 55.54H1.62443C0.727287 55.54 3.12259e-06 54.8372 3.04416e-06 53.9701L0 20.3175C-3.67578e-07 16.254 0.890387 12.7164 2.67114 9.70462C4.45189 6.69284 6.94992 4.35038 10.1652 2.67718C13.331 1.00399 17.0408 0.167389 21.2949 0.167389ZM21.2949 12.2144C19.9593 12.2144 18.7969 12.5251 17.8076 13.1466C16.7688 13.7681 15.9774 14.6286 15.4332 15.7281C14.8397 16.8754 14.5429 18.1662 14.5429 19.6004C14.5429 20.9867 14.8397 22.2058 15.4332 23.2575C15.9774 24.3092 16.7688 25.1458 17.8076 25.7673C18.7969 26.3888 19.9593 26.6995 21.2949 26.6995C22.581 26.6995 23.7434 26.3888 24.7822 25.7673C25.821 25.1458 26.6372 24.3092 27.2307 23.2575C27.7749 22.2058 28.0469 20.9867 28.0469 19.6004C28.0469 18.1662 27.7749 16.8754 27.2307 15.7281C26.6372 14.6286 25.821 13.7681 24.7822 13.1466C23.7434 12.5251 22.581 12.2144 21.2949 12.2144Z" fill="#FCFCFB"/>
<path d="M160.284 55.7332C158.156 55.7332 156.351 54.992 154.867 53.5101C153.383 52.0281 152.641 50.2835 152.641 48.2754C152.641 46.2199 153.383 44.4749 154.867 43.0407C156.351 41.5588 158.156 40.818 160.284 40.818C162.41 40.818 164.216 41.5588 165.7 43.0407C167.233 44.4749 168 46.2199 168 48.2754C168 49.6141 167.654 50.857 166.961 52.0045C166.269 53.1038 165.329 54.0122 164.142 54.7293C163.004 55.3987 161.718 55.7332 160.284 55.7332Z" fill="#FCFCFB"/>
</g>
<defs>
<clipPath id="clip0_18401_533283">
<rect width="168" height="56" fill="white"/>
</clipPath>
</defs>
</svg>
