<svg width="108" height="36" viewBox="0 0 108 36" fill="none" xmlns="http://www.w3.org/2000/svg">
<g clip-path="url(#clip0_18320_237161)">
<path d="M38.2528 35.7966C36.1858 35.7966 34.3256 35.2894 32.6718 34.2754C31.0183 33.2611 29.7146 31.8629 28.7606 30.0803C27.8066 28.2673 27.3296 26.1621 27.3296 23.7649C27.3296 21.2141 27.9181 18.9707 29.0946 17.0345C30.2711 15.0677 31.8928 13.5311 33.9598 12.4247C36.0586 11.3184 38.4913 10.7652 41.2578 10.7652C43.9606 10.7652 46.3138 11.303 48.3171 12.3786C50.3206 13.4235 51.8786 14.8986 52.9916 16.8041C54.1363 18.6787 54.7088 20.8607 54.7088 23.35V34.6504C54.7088 35.2078 54.2413 35.6596 53.6646 35.6596H47.0718C46.4951 35.6596 46.0276 35.2078 46.0276 34.6504V31.8175C46.0276 31.7237 45.9488 31.6476 45.8518 31.6476C45.7843 31.6476 45.7231 31.6851 45.6928 31.7435C45.2848 32.5343 44.7446 33.2401 44.0721 33.8603C43.4041 34.475 42.5933 34.9514 41.6393 35.2894C40.6853 35.6274 39.5566 35.7966 38.2528 35.7966ZM41.0668 28.052C41.9256 28.052 42.6728 27.8522 43.3088 27.4528C43.9766 27.0532 44.4853 26.5001 44.8351 25.7932C45.2168 25.0555 45.4076 24.2258 45.4076 23.3039C45.4076 22.4127 45.2168 21.629 44.8351 20.9529C44.4853 20.2768 43.9766 19.739 43.3088 19.3394C42.6728 18.9399 41.9256 18.7402 41.0668 18.7402C40.2401 18.7402 39.4928 18.9399 38.8251 19.3394C38.1573 19.739 37.6326 20.2768 37.2511 20.9529C36.9013 21.629 36.7263 22.4127 36.7263 23.3039C36.7263 24.2258 36.9013 25.0555 37.2511 25.7932C37.6326 26.5001 38.1573 27.0532 38.8251 27.4528C39.4928 27.8522 40.2401 28.052 41.0668 28.052Z" fill="#191919"/>
<path d="M58.4177 35.6596C57.8409 35.6596 57.3734 35.2078 57.3734 34.6504V12.8651C57.3734 12.3077 57.8409 11.8559 58.4177 11.8559H65.5024C66.0792 11.8559 66.5467 12.3077 66.5467 12.8651V34.6504C66.5467 35.2078 66.0792 35.6596 65.5024 35.6596H58.4177ZM61.9602 9.42035C60.6224 9.42035 59.4757 8.96084 58.5202 8.04177C57.5647 7.09207 57.0869 5.98922 57.0869 4.73315C57.0869 3.44648 57.5647 2.3436 58.5202 1.42454C59.4757 0.474847 60.6224 0 61.9602 0C63.2979 0 64.4444 0.474847 65.4002 1.42454C66.3557 2.3436 66.8334 3.44648 66.8334 4.73315C66.8334 5.98922 66.3557 7.09207 65.4002 8.04177C64.4444 8.96084 63.2979 9.42035 61.9602 9.42035Z" fill="#191919"/>
<path d="M82.3636 35.5968C80.2966 35.5968 78.4203 35.2894 76.7351 34.6748C75.0813 34.0601 73.6506 33.1843 72.4421 32.047C71.2338 30.8793 70.2956 29.5118 69.6278 27.9445C68.9918 26.3771 68.6738 24.6407 68.6738 22.7353C68.6738 20.2767 69.1986 18.1408 70.2481 16.3276C71.2973 14.5144 72.6966 13.1007 74.4456 12.0866C76.2263 11.0724 78.0821 10.7604 80.2761 10.7604C81.1666 10.7604 81.9943 11.0064 82.7256 11.1908C83.4888 11.3445 83.9693 11.7178 84.6053 12.0866C85.7951 12.8803 86.5761 14.1893 87.0586 14.7811C87.0943 14.825 87.1491 14.8493 87.2071 14.8493C87.3146 14.8493 87.4018 14.765 87.4018 14.661V1.00926C87.4018 0.451878 87.8693 3.05176e-05 88.4461 3.05176e-05H95.0088C95.5856 3.05176e-05 96.0531 0.451878 96.0531 1.00926V22.6431C96.0531 25.2553 95.4806 27.5294 94.3358 29.4656C93.1911 31.4017 91.5853 32.9076 89.5183 33.9833C87.4831 35.0589 85.0983 35.5968 82.3636 35.5968ZM82.3636 27.8522C83.2221 27.8522 83.9693 27.6524 84.6053 27.253C85.2731 26.8533 85.7818 26.3003 86.1316 25.5933C86.5133 24.8557 86.7041 24.026 86.7041 23.1041C86.7041 22.2128 86.5133 21.4291 86.1316 20.753C85.7818 20.0769 85.2731 19.5391 84.6053 19.1396C83.9693 18.7401 83.2221 18.5403 82.3636 18.5403C81.5366 18.5403 80.7893 18.7401 80.1216 19.1396C79.4538 19.5391 78.9291 20.0769 78.5476 20.753C78.1978 21.4291 78.0228 22.2128 78.0228 23.1041C78.0228 24.026 78.1978 24.8557 78.5476 25.5933C78.9291 26.3003 79.4538 26.8533 80.1216 27.253C80.7893 27.6524 81.5366 27.8522 82.3636 27.8522Z" fill="#191919"/>
<path d="M13.6896 0.107605C15.7565 0.107605 17.6327 0.414922 19.3181 1.02957C20.9716 1.64421 22.4026 2.52008 23.611 3.65717C24.8193 4.825 25.7575 6.19256 26.4253 7.75991C27.0613 9.32724 27.3793 11.0636 27.3793 12.969C27.3793 15.4276 26.8545 17.5635 25.805 19.3767C24.7557 21.1899 23.3566 22.6035 21.6076 23.6177C19.8268 24.632 18.049 24.9437 15.8549 24.9437C14.9196 24.8564 14.1068 24.7487 13.4054 24.5133C12.6594 24.263 12.1265 24.1033 11.4477 23.6177C10.0769 22.6371 9.46345 21.5017 8.99445 20.9233C8.95878 20.8793 8.9039 20.8549 8.84606 20.8549C8.73843 20.8549 8.65115 20.9393 8.65115 21.0433V34.6951C8.65115 35.2525 8.18363 35.7043 7.60688 35.7043H1.04428C0.467542 35.7043 2.00738e-06 35.2525 1.95696e-06 34.6951L0 13.0612C-2.363e-07 10.449 0.572391 8.17481 1.71716 6.23868C2.86193 4.30254 4.4678 2.79667 6.53475 1.72104C8.56991 0.645419 10.9548 0.107605 13.6896 0.107605ZM13.6896 7.85211C12.831 7.85211 12.0837 8.05188 11.4477 8.45138C10.78 8.85091 10.2712 9.40407 9.92135 10.1109C9.53978 10.8485 9.34898 11.6783 9.34898 12.6002C9.34898 13.4915 9.53978 14.2751 9.92135 14.9512C10.2712 15.6273 10.78 16.1652 11.4477 16.5647C12.0837 16.9642 12.831 17.164 13.6896 17.164C14.5164 17.164 15.2636 16.9642 15.9314 16.5647C16.5992 16.1652 17.1239 15.6273 17.5055 14.9512C17.8553 14.2751 18.0302 13.4915 18.0302 12.6002C18.0302 11.6783 17.8553 10.8485 17.5055 10.1109C17.1239 9.40407 16.5992 8.85091 15.9314 8.45138C15.2636 8.05188 14.5164 7.85211 13.6896 7.85211Z" fill="#191919"/>
<path d="M103.039 35.8285C101.672 35.8285 100.511 35.352 99.5575 34.3993C98.6035 33.4467 98.1265 32.3251 98.1265 31.0342C98.1265 29.7128 98.6035 28.591 99.5575 27.669C100.511 26.7164 101.672 26.2401 103.039 26.2401C104.407 26.2401 105.567 26.7164 106.521 27.669C107.507 28.591 108 29.7128 108 31.0342C108 31.8948 107.777 32.6938 107.332 33.4314C106.887 34.1382 106.283 34.7221 105.52 35.1831C104.788 35.6134 103.961 35.8285 103.039 35.8285Z" fill="#191919"/>
</g>
<defs>
<clipPath id="clip0_18320_237161">
<rect width="108" height="36" fill="white"/>
</clipPath>
</defs>
</svg>
